<svg height="1300" viewBox="0 0 653.52082 343.95834" width="2470" xmlns="http://www.w3.org/2000/svg"><g transform="translate(0 46.95835)"><path d="m0-46.95835h653.52083v343.95833h-653.52083z" fill="#bf0a30" stroke-width=".264583"/><g fill="#fff" transform="matrix(.26458333 0 0 .26458333 0 -46.95835)"><path d="m0 100h2470v100h-2470z"/><path d="m0 300h2470v100h-2470z"/><path d="m0 500h2470v100h-2470z"/></g><g fill="#fff" transform="matrix(.26458333 0 0 .26458333 0 111.79165)"><path d="m0 100h2470v100h-2470z"/><path d="m0 300h2470v100h-2470z"/><path d="m0 500h2470v100h-2470z"/></g><path d="m0-46.95835h261.40833v185.20833h-261.40833z" fill="#002868" stroke-width=".264583"/><g fill="#fff" stroke-width=".065389"><path d="m32.620955 88.949052 3.838517 11.904558 12.508077-.0266-10.135714 7.32937 3.890502 11.88769-10.102757-7.37475-10.103611 7.37357 3.891881-11.88723-10.134865-7.33055 12.508072.0281z"/><path d="m71.854592 88.949052 3.838517 11.904558 12.508076-.0266-10.135716 7.32937 3.890502 11.88769-10.102755-7.37475-10.103612 7.37357 3.891881-11.88723-10.134865-7.33055 12.508074.0281z"/><path d="m111.08653 88.949052 3.83852 11.904558 12.50808-.0266-10.13572 7.32937 3.8905 11.88769-10.10275-7.37475-10.10362 7.37357 3.89188-11.88723-10.13486-7.33055 12.50807.0281z"/><path d="m150.3202 88.949052 3.83851 11.904558 12.50808-.0266-10.13572 7.32937 3.89051 11.88769-10.10276-7.37475-10.10361 7.37357 3.89188-11.88723-10.13486-7.33055 12.50807.0281z"/><path d="m189.55549 88.949052 3.83852 11.904558 12.50808-.0266-10.13572 7.32937 3.8905 11.88769-10.10275-7.37475-10.10361 7.37357 3.89188-11.88723-10.13487-7.33055 12.50808.0281z"/><path d="m228.78913 88.949052 3.83851 11.904558 12.50808-.0266-10.13572 7.32937 3.89051 11.88769-10.10276-7.37475-10.10361 7.37357 3.89188-11.88723-10.13487-7.33055 12.50808.0281z"/><path d="m32.620955 49.715418 3.838517 11.904557 12.508077-.02661-10.135714 7.329366 3.890502 11.887689-10.102757-7.374741-10.103611 7.373572 3.891881-11.887237-10.134865-7.330543 12.508072.028059z"/><path d="m71.854592 49.715418 3.838517 11.904557 12.508076-.02661-10.135716 7.329366 3.890502 11.887689-10.102755-7.374744-10.103612 7.373572 3.891881-11.887237-10.134865-7.330543 12.508074.02806z"/><path d="m111.08653 49.715418 3.83852 11.904557 12.50808-.02661-10.13572 7.329366 3.8905 11.887689-10.10275-7.374744-10.10362 7.373572 3.89188-11.887237-10.13486-7.330543 12.50807.02806z"/><path d="m150.3202 49.715418 3.83851 11.904557 12.50808-.02661-10.13572 7.329366 3.89051 11.887689-10.10276-7.374744-10.10361 7.373572 3.89188-11.887237-10.13486-7.330543 12.50807.02806z"/><path d="m189.55549 49.715418 3.83852 11.904557 12.50808-.02661-10.13572 7.329366 3.8905 11.887689-10.10275-7.374744-10.10361 7.373572 3.89188-11.887237-10.13487-7.330543 12.50808.02806z"/><path d="m228.78913 49.715418 3.83851 11.904557 12.50808-.02661-10.13572 7.329369 3.89051 11.887689-10.10276-7.374744-10.10361 7.373572 3.89188-11.887237-10.13487-7.330543 12.50808.02806z"/><path d="m52.237836 10.481768 3.838517 11.904557 12.508076-.02661-10.135714 7.329366 3.890502 11.88769-10.102757-7.374745-10.103609 7.373573 3.89188-11.887237-10.134864-7.330544 12.508071.02806z"/><path d="m91.471472 10.481784 3.838517 11.904557 12.508081-.026607-10.135721 7.329366 3.890501 11.88769-10.102754-7.374745-10.103612 7.373572 3.891881-11.887237-10.134865-7.330543 12.508074.02806z"/><path d="m130.70511 10.481768 3.83851 11.904557 12.50808-.02661-10.13572 7.329366 3.8905 11.88769-10.10275-7.374745-10.10361 7.373573 3.89188-11.887237-10.13487-7.330544 12.50808.02806z"/><path d="m169.93874 10.481768 3.83852 11.904557 12.50807-.02661-10.13571 7.329366 3.8905 11.88769-10.10276-7.374745-10.10361 7.373573 3.89188-11.887237-10.13486-7.330544 12.50807.02806z"/><path d="m209.17065 10.481784 3.83852 11.904557 12.50807-.02661-10.13571 7.329366 3.8905 11.88769-10.10276-7.374745-10.10361 7.373572 3.89188-11.887237-10.13486-7.330543 12.50807.02806z"/><path d="m32.620971-28.75185 3.838517 11.904557 12.508077-.02661-10.135714 7.3293654 3.890502 11.8876894-10.102758-7.3747444-10.10361 7.3735723 3.891881-11.887237-10.134864-7.3305437 12.508071.02806z"/><path d="m71.854592-28.75185 3.838517 11.904557 12.508076-.02661-10.135716 7.3293654 3.890502 11.8876894-10.102755-7.3747444-10.103612 7.3735723 3.891881-11.887237-10.134865-7.3305437 12.508074.02806z"/><path d="m111.08653-28.75185 3.83852 11.904557 12.50808-.02661-10.13572 7.3293654 3.8905 11.8876894-10.10275-7.3747444-10.10362 7.3735723 3.89188-11.887237-10.13486-7.3305437 12.50807.02806z"/><path d="m150.3202-28.75185 3.83851 11.904557 12.50808-.02661-10.13572 7.3293654 3.89051 11.8876894-10.10276-7.3747444-10.10361 7.3735723 3.89188-11.887237-10.13486-7.3305437 12.50807.02806z"/><path d="m189.55552-28.75185 3.83852 11.904557 12.50808-.02661-10.13572 7.3293654 3.8905 11.8876894-10.10275-7.3747444-10.10361 7.3735723 3.89188-11.887237-10.13487-7.3305437 12.50808.02806z"/><path d="m228.78916-28.75185 3.83852 11.904557 12.50807-.02661-10.13571 7.3293654 3.8905 11.8876894-10.10276-7.3747444-10.10361 7.3735723 3.89188-11.887237-10.13486-7.3305437 12.50807.02806z"/></g></g></svg>